<svg width="73" height="40" viewBox="0 0 73 40" fill="none" xmlns="http://www.w3.org/2000/svg">
<path fill-rule="evenodd" clip-rule="evenodd" d="M8.99861 28.622C7.17437 28.622 6.7675 28.3161 6.7675 26.1307V11.0625H0.570312V28.5593L0.573244 28.5635C0.572593 28.5986 0.570964 28.6334 0.570964 28.6688C0.570964 31.9379 3.32556 34.5891 6.72939 34.6041L8.99861 34.6047V28.622Z" fill="#8D9CA2"/>
<path fill-rule="evenodd" clip-rule="evenodd" d="M3.64424 7.22714C5.58216 7.22714 7.16469 5.72074 7.28163 3.81603C7.39923 1.8993 5.87925 0.179924 3.96283 0.0137742C1.86333 -0.167982 0 1.47173 0 3.58941C0 5.59978 1.67862 7.22714 3.64424 7.22714Z" fill="#8D9CA2"/>
<path fill-rule="evenodd" clip-rule="evenodd" d="M0 3.61348C0 1.61781 1.64834 0 3.64401 0C5.63968 0 7.28802 1.61781 7.28802 3.61348C7.28802 5.60915 5.63968 7.22696 3.64401 7.22696C1.64834 7.22696 0 5.60915 0 3.61348Z" fill="#00A3FF"/>
<path d="M19 34.309V15.5H22.5963V22.4398C23.0905 21.8614 23.7494 21.3703 24.573 20.9664C25.3965 20.5534 26.3208 20.3468 27.3457 20.3468C28.8099 20.3468 29.9126 20.7232 30.6538 21.4759C31.395 22.2286 31.7656 23.2843 31.7656 24.6429V34.309H28.1967V26.0198C28.1967 25.1202 27.9817 24.4822 27.5516 24.1059C27.1215 23.7295 26.4992 23.5413 25.6848 23.5413C25.0351 23.5413 24.4403 23.6928 23.9004 23.9957C23.3604 24.2986 22.9258 24.6704 22.5963 25.111V34.309H19Z" fill="#485056"/>
<path d="M19 34.309V15.5H22.5963V22.4398C23.0905 21.8614 23.7494 21.3703 24.573 20.9664C25.3965 20.5534 26.3208 20.3468 27.3457 20.3468C28.8099 20.3468 29.9126 20.7232 30.6538 21.4759C31.395 22.2286 31.7656 23.2843 31.7656 24.6429V34.309H28.1967V26.0198C28.1967 25.1202 27.9817 24.4822 27.5516 24.1059C27.1215 23.7295 26.4992 23.5413 25.6848 23.5413C25.0351 23.5413 24.4403 23.6928 23.9004 23.9957C23.3604 24.2986 22.9258 24.6704 22.5963 25.111V34.309H19Z" fill="#00A7FE"/>
<path d="M34.4423 27.4793C34.4423 26.1667 34.7397 24.9687 35.3345 23.8855C35.9293 22.8024 36.7666 21.9441 37.8465 21.3107C38.9263 20.6681 40.1342 20.3468 41.4703 20.3468C43.5018 20.3468 45.1398 21.0399 46.3843 22.426C47.638 23.8029 48.2649 25.6021 48.2649 27.8236V28.6635H38.1759C38.304 29.5448 38.7112 30.2745 39.3976 30.8528C40.0839 31.4312 40.9807 31.7203 42.088 31.7203C42.6919 31.7203 43.3371 31.601 44.0234 31.3623C44.7189 31.1145 45.2725 30.7886 45.6843 30.3847L47.2766 32.753C46.6177 33.3589 45.7895 33.827 44.7921 34.1575C43.8038 34.488 42.7697 34.6532 41.6899 34.6532C39.5943 34.6532 37.8602 33.9968 36.4875 32.6842C35.124 31.3623 34.4423 29.6274 34.4423 27.4793ZM38.1484 26.185H44.8332C44.8058 25.8362 44.7234 25.5011 44.5862 25.1799C44.4489 24.8586 44.2522 24.5511 43.9959 24.2573C43.7489 23.9636 43.4057 23.7295 42.9664 23.5551C42.5272 23.3715 42.0285 23.2797 41.4703 23.2797C40.9395 23.2797 40.4636 23.3669 40.0427 23.5413C39.6218 23.7157 39.2832 23.9498 39.0269 24.2435C38.7707 24.5281 38.5694 24.8356 38.423 25.1661C38.2766 25.4874 38.1851 25.827 38.1484 26.185Z" fill="#485056"/>
<path d="M34.4423 27.4793C34.4423 26.1667 34.7397 24.9687 35.3345 23.8855C35.9293 22.8024 36.7666 21.9441 37.8465 21.3107C38.9263 20.6681 40.1342 20.3468 41.4703 20.3468C43.5018 20.3468 45.1398 21.0399 46.3843 22.426C47.638 23.8029 48.2649 25.6021 48.2649 27.8236V28.6635H38.1759C38.304 29.5448 38.7112 30.2745 39.3976 30.8528C40.0839 31.4312 40.9807 31.7203 42.088 31.7203C42.6919 31.7203 43.3371 31.601 44.0234 31.3623C44.7189 31.1145 45.2725 30.7886 45.6843 30.3847L47.2766 32.753C46.6177 33.3589 45.7895 33.827 44.7921 34.1575C43.8038 34.488 42.7697 34.6532 41.6899 34.6532C39.5943 34.6532 37.8602 33.9968 36.4875 32.6842C35.124 31.3623 34.4423 29.6274 34.4423 27.4793ZM38.1484 26.185H44.8332C44.8058 25.8362 44.7234 25.5011 44.5862 25.1799C44.4489 24.8586 44.2522 24.5511 43.9959 24.2573C43.7489 23.9636 43.4057 23.7295 42.9664 23.5551C42.5272 23.3715 42.0285 23.2797 41.4703 23.2797C40.9395 23.2797 40.4636 23.3669 40.0427 23.5413C39.6218 23.7157 39.2832 23.9498 39.0269 24.2435C38.7707 24.5281 38.5694 24.8356 38.423 25.1661C38.2766 25.4874 38.1851 25.827 38.1484 26.185Z" fill="#00A7FE"/>
<path d="M50.8454 30.8941V15.5H54.4143V29.9441C54.4143 30.3847 54.5241 30.7473 54.7438 31.0318C54.9634 31.3164 55.2654 31.4587 55.6497 31.4587C55.9059 31.4587 56.1484 31.4174 56.3772 31.3348C56.6152 31.2522 56.7844 31.1512 56.8851 31.0318L57.6538 33.7719C57.0041 34.3594 56.0112 34.6532 54.6751 34.6532C53.4306 34.6532 52.4789 34.3365 51.82 33.7031C51.1703 33.0605 50.8454 32.1242 50.8454 30.8941Z" fill="#485056"/>
<path d="M50.8454 30.8941V15.5H54.4143V29.9441C54.4143 30.3847 54.5241 30.7473 54.7438 31.0318C54.9634 31.3164 55.2654 31.4587 55.6497 31.4587C55.9059 31.4587 56.1484 31.4174 56.3772 31.3348C56.6152 31.2522 56.7844 31.1512 56.8851 31.0318L57.6538 33.7719C57.0041 34.3594 56.0112 34.6532 54.6751 34.6532C53.4306 34.6532 52.4789 34.3365 51.82 33.7031C51.1703 33.0605 50.8454 32.1242 50.8454 30.8941Z" fill="#00A7FE"/>
<path d="M59.2186 39.5V20.6911H62.7875V22.4122C63.8765 21.0353 65.272 20.3468 66.9741 20.3468C68.7585 20.3468 70.2089 20.9802 71.3254 22.247C72.4418 23.5138 73 25.2579 73 27.4793C73 29.7008 72.4418 31.4541 71.3254 32.7392C70.2089 34.0152 68.7585 34.6532 66.9741 34.6532C65.2994 34.6532 63.9039 33.9555 62.7875 32.5602V39.5H59.2186ZM62.7875 29.8752C63.0895 30.3158 63.5333 30.6922 64.119 31.0043C64.7046 31.3072 65.2811 31.4587 65.8485 31.4587C66.8734 31.4587 67.7062 31.0915 68.3467 30.3571C68.9873 29.6228 69.3076 28.6635 69.3076 27.4793C69.3076 26.3044 68.9873 25.3543 68.3467 24.6291C67.7062 23.9039 66.8734 23.5413 65.8485 23.5413C65.272 23.5413 64.6955 23.6882 64.119 23.9819C63.5424 24.2665 63.0986 24.6337 62.7875 25.0835V29.8752Z" fill="#485056"/>
<path d="M59.2186 39.5V20.6911H62.7875V22.4122C63.8765 21.0353 65.272 20.3468 66.9741 20.3468C68.7585 20.3468 70.2089 20.9802 71.3254 22.247C72.4418 23.5138 73 25.2579 73 27.4793C73 29.7008 72.4418 31.4541 71.3254 32.7392C70.2089 34.0152 68.7585 34.6532 66.9741 34.6532C65.2994 34.6532 63.9039 33.9555 62.7875 32.5602V39.5H59.2186ZM62.7875 29.8752C63.0895 30.3158 63.5333 30.6922 64.119 31.0043C64.7046 31.3072 65.2811 31.4587 65.8485 31.4587C66.8734 31.4587 67.7062 31.0915 68.3467 30.3571C68.9873 29.6228 69.3076 28.6635 69.3076 27.4793C69.3076 26.3044 68.9873 25.3543 68.3467 24.6291C67.7062 23.9039 66.8734 23.5413 65.8485 23.5413C65.272 23.5413 64.6955 23.6882 64.119 23.9819C63.5424 24.2665 63.0986 24.6337 62.7875 25.0835V29.8752Z" fill="#00A7FE"/>
</svg>
