<svg width="44" height="44" viewBox="0 0 44 44" fill="none" xmlns="http://www.w3.org/2000/svg">
<path fill-rule="evenodd" clip-rule="evenodd" d="M2.85938 22.0014C2.85938 11.4311 11.4253 2.86328 21.9975 2.86328C32.5643 2.86328 41.1356 11.4313 41.1356 22.0014C41.1356 32.5721 32.5643 41.1395 21.9975 41.1395C11.4252 41.1395 2.85938 32.5723 2.85938 22.0014ZM21.9975 0.863281C10.3206 0.863281 0.859375 10.3267 0.859375 22.0014C0.859375 33.6768 10.3206 43.1395 21.9975 43.1395C33.6686 43.1395 43.1356 33.677 43.1356 22.0014C43.1356 10.3265 33.6686 0.863281 21.9975 0.863281ZM32.0398 16.9689C32.4383 16.5864 32.4512 15.9534 32.0687 15.555C31.6862 15.1566 31.0532 15.1436 30.6548 15.5261L17.8861 27.7839L14.0839 23.873C13.6989 23.477 13.0658 23.4681 12.6698 23.8531C12.2738 24.2381 12.2649 24.8712 12.6499 25.2672L17.1448 29.8905C17.5281 30.2847 18.1577 30.2956 18.5543 29.9148L32.0398 16.9689Z" fill="#00A3FF"/>
<path d="M32.0687 15.555L32.2491 15.3818L32.0687 15.555ZM32.0398 16.9689L31.8667 16.7885L32.0398 16.9689ZM30.6548 15.5261L30.4817 15.3458L30.6548 15.5261ZM17.8861 27.7839L17.7069 27.9581C17.8027 28.0567 17.9601 28.0594 18.0593 27.9642L17.8861 27.7839ZM14.0839 23.873L14.2631 23.6987L14.0839 23.873ZM12.6698 23.8531L12.4955 23.6738H12.4955L12.6698 23.8531ZM12.6499 25.2672L12.4706 25.4414L12.6499 25.2672ZM17.1448 29.8905L17.3241 29.7162L17.1448 29.8905ZM18.5543 29.9148L18.3812 29.7345L18.5543 29.9148ZM21.9975 2.61328C11.2872 2.61328 2.60938 11.2931 2.60938 22.0014H3.10938C3.10938 11.5692 11.5633 3.11328 21.9975 3.11328V2.61328ZM41.3856 22.0014C41.3856 11.2932 32.7023 2.61328 21.9975 2.61328V3.11328C32.4263 3.11328 40.8856 11.5694 40.8856 22.0014H41.3856ZM21.9975 41.3895C32.7024 41.3895 41.3856 32.7102 41.3856 22.0014H40.8856C40.8856 32.434 32.4263 40.8895 21.9975 40.8895V41.3895ZM2.60938 22.0014C2.60938 32.7104 11.2872 41.3895 21.9975 41.3895V40.8895C11.5633 40.8895 3.10938 32.4342 3.10938 22.0014H2.60938ZM1.10938 22.0014C1.10938 10.4647 10.4586 1.11328 21.9975 1.11328V0.613281C10.1825 0.613281 0.609375 10.1886 0.609375 22.0014H1.10938ZM21.9975 42.8895C10.4587 42.8895 1.10938 33.5387 1.10938 22.0014H0.609375C0.609375 33.8148 10.1825 43.3895 21.9975 43.3895V42.8895ZM42.8856 22.0014C42.8856 33.5388 33.5306 42.8895 21.9975 42.8895V43.3895C33.8067 43.3895 43.3856 33.8151 43.3856 22.0014H42.8856ZM21.9975 1.11328C33.5306 1.11328 42.8856 10.4646 42.8856 22.0014H43.3856C43.3856 10.1884 33.8067 0.613281 21.9975 0.613281V1.11328ZM31.8884 15.7281C32.1752 16.0269 32.1655 16.5017 31.8667 16.7885L32.213 17.1492C32.711 16.6711 32.7271 15.8799 32.2491 15.3818L31.8884 15.7281ZM30.8279 15.7065C31.1267 15.4196 31.6015 15.4293 31.8884 15.7281L32.2491 15.3818C31.771 14.8838 30.9797 14.8677 30.4817 15.3458L30.8279 15.7065ZM18.0593 27.9642L30.8279 15.7065L30.4817 15.3458L17.713 27.6035L18.0593 27.9642ZM13.9046 24.0473L17.7069 27.9581L18.0654 27.6096L14.2631 23.6987L13.9046 24.0473ZM12.8441 24.0323C13.1411 23.7436 13.6159 23.7503 13.9046 24.0473L14.2631 23.6987C13.7819 23.2037 12.9905 23.1926 12.4955 23.6738L12.8441 24.0323ZM12.8291 25.0929C12.5404 24.7959 12.5471 24.3211 12.8441 24.0323L12.4955 23.6738C12.0005 24.1551 11.9894 24.9464 12.4706 25.4414L12.8291 25.0929ZM17.3241 29.7162L12.8291 25.0929L12.4706 25.4414L16.9656 30.0648L17.3241 29.7162ZM18.3812 29.7345C18.0837 30.02 17.6115 30.0119 17.3241 29.7162L16.9656 30.0648C17.4446 30.5575 18.2317 30.5711 18.7275 30.0951L18.3812 29.7345ZM31.8667 16.7885L18.3812 29.7345L18.7275 30.0951L32.213 17.1492L31.8667 16.7885Z" fill="#00A3FF"/>
</svg>
